<svg xmlns="http://www.w3.org/2000/svg" viewBox="0 0 1200 360" width="1200" height="360">
  <defs>
    <linearGradient id="bg2" x1="0%" y1="0%" x2="100%" y2="100%">
      <stop offset="0%" style="stop-color:#0d1117"/>
      <stop offset="100%" style="stop-color:#1a1a2e"/>
    </linearGradient>
    <filter id="glow2">
      <feGaussianBlur stdDeviation="4" result="blur"/>
      <feMerge><feMergeNode in="blur"/><feMergeNode in="SourceGraphic"/></feMerge>
    </filter>
  </defs>
  <rect width="1200" height="360" fill="url(#bg2)"/>
  <g transform="translate(60, 80)" filter="url(#glow2)">
    <rect x="0" y="0" width="160" height="110" rx="8" fill="none" stroke="#444" stroke-width="2"/>
    <rect x="4" y="4" width="152" height="102" rx="5" fill="#111"/>
    <rect x="8" y="10" width="136" height="16" rx="3" fill="#00c800" opacity="0.85"/>
    <text x="16" y="22" font-family="monospace" font-size="10" fill="#0d1117">BBC One HD</text>
    <rect x="8" y="30" width="136" height="16" rx="3" fill="#ff3232" opacity="0.85"/>
    <text x="16" y="42" font-family="monospace" font-size="10" fill="#ffffff">Sky Movies HD</text>
    <rect x="8" y="50" width="136" height="16" rx="3" fill="#888888" opacity="0.85"/>
    <text x="16" y="62" font-family="monospace" font-size="10" fill="#ffffff">Channel 999</text>
    <rect x="8" y="70" width="136" height="16" rx="3" fill="#00c800" opacity="0.85"/>
    <text x="16" y="82" font-family="monospace" font-size="10" fill="#0d1117">ITV HD</text>
    <rect x="65" y="110" width="30" height="10" rx="2" fill="#333"/>
    <rect x="55" y="118" width="50" height="6" rx="3" fill="#333"/>
  </g>
  <g transform="translate(80, 230)">
    <circle cx="10" cy="10" r="8" fill="#00c800"/>
    <text x="25" y="15" font-family="'Segoe UI', Arial, sans-serif" font-size="14" fill="#00c800">FTA</text>
    <circle cx="85" cy="10" r="8" fill="#ff3232"/>
    <text x="100" y="15" font-family="'Segoe UI', Arial, sans-serif" font-size="14" fill="#ff3232">Encrypted</text>
    <circle cx="200" cy="10" r="8" fill="#888888"/>
    <text x="215" y="15" font-family="'Segoe UI', Arial, sans-serif" font-size="14" fill="#888888">No Signal</text>
  </g>
  <text x="280" y="145" font-family="'Segoe UI', Arial, sans-serif" font-size="50" font-weight="800" fill="#ffffff" letter-spacing="-1">Enigma2 Channel</text>
  <text x="280" y="205" font-family="'Segoe UI', Arial, sans-serif" font-size="50" font-weight="800" fill="#00c800" letter-spacing="-1">Color Guide</text>
  <text x="282" y="248" font-family="'Segoe UI', Arial, sans-serif" font-size="21" fill="#8b949e" letter-spacing="0.3">Colorize your channel list by encryption state — instant FTA detection</text>
  <g transform="translate(282, 278)">
    <rect x="0" y="0" width="110" height="28" rx="14" fill="#00c800" opacity="0.15"/>
    <text x="55" y="19" font-family="'Segoe UI', Arial, sans-serif" font-size="13" fill="#00c800" text-anchor="middle" font-weight="600">OpenATV 7.x</text>
    <rect x="122" y="0" width="110" height="28" rx="14" fill="#00c800" opacity="0.1"/>
    <text x="177" y="19" font-family="'Segoe UI', Arial, sans-serif" font-size="13" fill="#4caf50" text-anchor="middle" font-weight="600">OpenPLi 9.x</text>
    <rect x="244" y="0" width="90" height="28" rx="14" fill="#5b9bd5" opacity="0.15"/>
    <text x="289" y="19" font-family="'Segoe UI', Arial, sans-serif" font-size="13" fill="#5b9bd5" text-anchor="middle" font-weight="600">Python</text>
    <rect x="346" y="0" width="80" height="28" rx="14" fill="#888" opacity="0.15"/>
    <text x="386" y="19" font-family="'Segoe UI', Arial, sans-serif" font-size="13" fill="#aaa" text-anchor="middle" font-weight="600">MIT</text>
  </g>
  <text x="1150" y="340" font-family="'Segoe UI', Arial, sans-serif" font-size="14" fill="#00c800" opacity="0.6" text-anchor="end" font-weight="600">SamoTech</text>
</svg>